<svg width="40" height="34" viewBox="0 0 40 34" fill="none" xmlns="http://www.w3.org/2000/svg">
  <path d="M10.545 0.475663C10.7951 0.225614 11.1342 0.0851387 11.4878 0.0851387C11.8415 0.0851388 12.1806 0.225614 12.4306 0.475663L15.4555 3.50055C15.7056 3.7506 15.8461 4.08973 15.8461 4.44336C15.8461 4.79698 15.7056 5.13612 15.4555 5.38617L10.5057 10.3359L5.59528 5.42541L10.545 0.475663ZM5.59528 5.42541L10.5057 10.3359L5.55604 15.2857C5.30599 15.5357 4.96685 15.6762 4.61323 15.6762C4.25961 15.6762 3.92047 15.5357 3.67042 15.2857L0.645534 12.2608C0.395486 12.0107 0.255009 11.6716 0.255009 11.318C0.255009 10.9643 0.395485 10.6252 0.645534 10.3752L5.59528 5.42541ZM11.4878 11.318L16.3983 16.2284L11.4486 21.1782C11.1985 21.4283 10.8594 21.5687 10.5058 21.5687C10.1522 21.5687 9.81302 21.4283 9.56298 21.1782L6.53809 18.1533C6.28804 17.9033 6.14757 17.5641 6.14757 17.2105C6.14757 16.8569 6.28804 16.5178 6.53809 16.2677L11.4878 11.318ZM17.3804 5.42541L22.2909 10.3359L16.3983 16.2284L11.4878 11.318L17.3804 5.42541ZM22.3301 0.475663C22.5802 0.225615 22.9193 0.0851394 23.2729 0.0851394C23.6266 0.0851394 23.9657 0.225615 24.2158 0.475663L27.2406 3.50055C27.4907 3.7506 27.6312 4.08974 27.6312 4.44336C27.6312 4.79698 27.4907 5.13612 27.2406 5.38617L22.2909 10.3359L17.3804 5.42541L22.3301 0.475663ZM34.1153 0.475664C34.3653 0.225615 34.7044 0.0851398 35.0581 0.0851398C35.4117 0.0851398 35.7508 0.225615 36.0009 0.475664L39.0258 3.50055C39.2758 3.7506 39.4163 4.08974 39.4163 4.44336C39.4163 4.79698 39.2758 5.13612 39.0258 5.38617L34.076 10.3359L29.1655 5.42541L34.1153 0.475664ZM29.1655 5.42541L34.076 10.3359L29.1263 15.2857C28.8762 15.5357 28.5371 15.6762 28.1835 15.6762C27.8298 15.6762 27.4907 15.5357 27.2406 15.2857L24.2158 12.2608C23.9657 12.0107 23.8252 11.6716 23.8252 11.318C23.8252 10.9643 23.9657 10.6252 24.2158 10.3752L29.1655 5.42541ZM16.4376 18.1533C16.6876 17.9033 17.0268 17.7628 17.3804 17.7628C17.734 17.7628 18.0732 17.9033 18.3232 18.1533L21.3481 21.1782C21.5981 21.4283 21.7386 21.7674 21.7386 22.121C21.7386 22.4746 21.5981 22.8138 21.3481 23.0638L17.3412 27.0708C17.0911 27.3208 16.752 27.4613 16.3983 27.4613C16.0447 27.4613 15.7056 27.3208 15.4555 27.0708L12.4306 24.0459C12.1806 23.7958 12.0401 23.4567 12.0401 23.1031C12.0401 22.7495 12.1806 22.4103 12.4306 22.1603L16.4376 18.1533ZM22.3301 24.0459C22.5802 23.7958 22.9193 23.6554 23.273 23.6554C23.6266 23.6554 23.9657 23.7958 24.2158 24.0459L27.2406 27.0708C27.4907 27.3208 27.6312 27.66 27.6312 28.0136C27.6312 28.3672 27.4907 28.7063 27.2406 28.9564L23.2337 32.9633C22.9837 33.2134 22.6445 33.3539 22.2909 33.3539C21.9373 33.3539 21.5981 33.2134 21.3481 32.9633L18.3232 29.9384C18.0732 29.6884 17.9327 29.3493 17.9327 28.9956C17.9327 28.642 18.0732 28.3029 18.3232 28.0528L22.3301 24.0459ZM34.1153 12.2608C34.3653 12.0107 34.7044 11.8703 35.0581 11.8703C35.4117 11.8703 35.7508 12.0107 36.0009 12.2608L39.0258 15.2857C39.2758 15.5357 39.4163 15.8748 39.4163 16.2285C39.4163 16.5821 39.2758 16.9212 39.0258 17.1713L35.0188 21.1782C34.7688 21.4283 34.4296 21.5687 34.076 21.5687C33.7224 21.5687 33.3833 21.4283 33.1332 21.1782L30.1083 18.1533C29.8583 17.9033 29.7178 17.5641 29.7178 17.2105C29.7178 16.8569 29.8583 16.5178 30.1083 16.2677L34.1153 12.2608Z" fill="#FFF"/>
</svg>
